<?xml version="1.0" encoding="utf-8"?>
<!-- Generator: Adobe Illustrator 21.0.2, SVG Export Plug-In . SVG Version: 6.00 Build 0)  -->
<svg version="1.1" id="Layer_1" xmlns="http://www.w3.org/2000/svg" xmlns:xlink="http://www.w3.org/1999/xlink" x="0px" y="0px"
	 viewBox="0 0 441.8 177.5" style="enable-background:new 0 0 441.8 177.5;" xml:space="preserve">
<style type="text/css">
	.st0{fill-rule:evenodd;clip-rule:evenodd;fill:#E90062;}
	.st1{fill-rule:evenodd;clip-rule:evenodd;fill:#F495A2;}
	.st2{fill-rule:evenodd;clip-rule:evenodd;}
	.st3{fill-rule:evenodd;clip-rule:evenodd;fill:#818285;}
	.st4{fill-rule:evenodd;clip-rule:evenodd;fill:#BCBDC0;}
</style>
<g>
	<path class="st0" d="M28.5,148.1c27.2,7.5,52,3.1,73-16c21-19.1,27.9-43.3,23.2-71.1c4.2,5.8,7.1,12.3,9.1,19.2
		c2,6.9,2.8,14,2.4,21.2c-0.7,13.5-5.2,25.7-13.4,36.5c-8.4,11-19.3,18.6-32.5,22.7C64.9,168.4,41.6,159.7,28.5,148.1z"/>
	<path class="st1" d="M6.2,118.4c-8.5-19.6-8.6-39.3,1.7-58.2c12.6-23.1,32.7-34.9,59-34.8c19.4,0.1,35.6,8.1,48.4,22.7
		c-25.6-11.8-50.8-11.4-74.7,4C16.9,67.5,6.1,90.3,6.2,118.4z"/>
	<path class="st2" d="M236.7,128.4c-7.3-0.1-12.9-1.1-18-4c-7.3-4.1-11.7-10.5-13.2-18.6c-1.9-9.7,0.7-18.3,7.6-25.4
		c4-4.1,8.9-6.4,14.4-7.5c7.3-1.5,14.6-1.2,21.7,1.2c6.5,2.2,11.5,6.1,14.6,12.3c1.5,2.9,2.3,5.9,2.6,9.1c0.5,5.1,0,10.1-1.9,14.8
		c-3.8,9.4-10.8,14.9-20.5,17.2C241.1,128,238.1,128.2,236.7,128.4z M255.3,101.7c-0.1-4.5-0.8-8.9-2.6-13.1
		c-3.4-7.9-10.6-12.6-19.2-12.6c-8,0-14,4.6-16.2,12.3c-1.4,4.8-1.6,9.7-0.9,14.7c0.7,5.4,2.6,10.4,6.4,14.5
		c4.7,5.1,10.5,7.2,17.3,6.6c5.7-0.5,9.8-3.5,12.4-8.5C254.7,111.2,255.2,106.5,255.3,101.7z"/>
	<path class="st2" d="M290,73c4.1,0,8.2-0.1,12.2,0c3.1,0.1,6.2,0.6,9.1,1.9c6,2.7,8.7,9.6,6.3,15.9c-1.1,2.8-3,5.1-5.1,7.2
		c-1.1,1.1-2.4,2.2-3.6,3.3c-0.5,0.4-0.5,0.7-0.1,1.2c4.6,5.5,9.2,11,13.9,16.4c1.9,2.2,3.9,4.3,6.6,5.5c1.4,0.6,2.9,0.8,4.4,1.2
		c0.3,0.1,0.7,0.1,0.9,0.2c0.2,0.2,0.5,0.5,0.5,0.7c0,0.2-0.3,0.5-0.5,0.7c-0.1,0.1-0.4,0.1-0.5,0.1c-3.6,0-7.3,0-10.9-0.1
		c-4.1-0.2-7.3-2.3-9.8-5.5c-3.7-4.7-7.3-9.5-10.8-14.5c-1.2-1.6-2.4-2.3-4.3-2.3c-1.5,0-2.9,0-4.4,0c-0.7,0-1,0.3-1,1
		c0.1,5.3,0.2,10.6,0.5,15.9c0.1,2.6,1.1,3.4,4.2,3.6c0.6,0,1.3,0,1.9,0c0.6,0,1.3,0.2,1.2,0.9c-0.1,0.3-0.7,0.8-1.2,0.8
		c-2.3,0.1-4.6,0-7,0c-3.1,0-6.2,0-9.4,0c-1.7,0-3.3,0.1-5,0.1c-0.6,0-1.3-0.1-1.3-0.9c0-0.7,0.7-0.8,1.3-0.9
		c0.7-0.1,1.4-0.1,2.1-0.1c1.3-0.1,2.1-0.9,2.3-2.1c0.3-1.7,0.5-3.4,0.6-5.1c0.1-12.9,0-25.8,0.1-38.7c0-3.3-1-4.5-4.8-4.9
		c-0.4,0-0.8,0-1.2,0c-0.6,0-1.4-0.1-1.3-0.9c0-0.8,0.8-0.7,1.3-0.7c2.9,0,5.9,0,8.8,0C287.2,73,288.6,73,290,73
		C290,73,290,73,290,73z M292.8,88.8c0,3.4,0,6.8,0,10.2c0,0.9,0.3,1.4,1.1,1.6c2.5,0.6,5.1,0.7,7.7,0.3c2.7-0.4,4.4-2.4,5.6-4.6
		c1.6-2.7,1.7-5.7,1.5-8.7c-0.2-3.1-1.3-5.9-3.7-8c-3.2-2.8-7-3-10.9-2.6c-1.3,0.1-1.4,0.3-1.4,1.6
		C292.8,82.1,292.8,85.4,292.8,88.8z"/>
	<path class="st3" d="M149.6,60.5c-2.5-4.8-5.3-9.1-8.5-13.2c-3.2-4.1-6.7-7.8-10.6-11.2c-3.9-3.4-8.1-6.4-12.5-9
		c-4.5-2.6-9.1-4.8-14-6.5c-4.9-1.7-9.9-3-15-3.8c-5.1-0.7-10.2-1.3-15.4-0.8c-5.1,0.4-10.2,1-15.4,1.3c0.2-0.2,0.4-0.3,0.6-0.5
		c5.2-3.2,10.5-6.3,15.7-9.5c3.8-2.3,7.7-4.7,11.5-7C86.4,0,87,0,87.5,0c9.3,1.5,18.4,4.1,26.8,8.4c10.7,5.4,19.4,13,25.7,23.2
		c4.8,7.7,7.9,16,9.3,25c0.2,1.1,0.3,2.2,0.4,3.3C149.8,60,149.7,60.1,149.6,60.5z"/>
	<path class="st2" d="M408.5,109.4c-2.7,0-5.4,0-8.1,0c-0.7,0-1.1,0.2-1.4,0.9c-1.3,3.2-2.6,6.3-3.9,9.6c-0.4,1.1-0.7,2.4-0.9,3.6
		c-0.2,1.3,0.5,2,1.8,2.2c0.7,0.1,1.3,0,2,0c0.6,0,1.2,0.2,1.2,0.9c0,0.8-0.6,0.9-1.2,0.9c-2.3-0.1-4.6-0.2-7-0.2
		c-3.2,0-6.5,0.1-9.7,0.2c-0.7,0-1.6,0.2-1.7-0.8c-0.1-1.1,0.9-1,1.6-1c3.5,0.2,5.6-1.8,6.9-4.8c1.3-2.9,2.6-5.9,3.8-8.9
		c5.5-12.8,11-25.5,16.4-38.3c0.2-0.6,0.5-1.1,0.9-1.6c0.8-1.2,2-1.2,2.8,0c0.3,0.5,0.6,1,0.9,1.6c3.9,9.2,7.8,18.4,11.8,27.6
		c2.5,5.9,5,11.7,7.6,17.5c0.7,1.5,1.6,2.9,2.5,4.3c1.1,1.7,2.9,2.4,4.9,2.5c0.5,0,1,0,1.4,0.1c0.3,0.1,0.6,0.5,0.6,0.8
		c0,0.2-0.3,0.6-0.6,0.7c-0.4,0.2-0.9,0.2-1.4,0.2c-4.2,0-8.4,0-12.6,0c-1.3,0-2.6-0.1-3.9-0.2c-0.4,0-0.8-0.4-1.2-0.7
		c0.3-0.3,0.6-0.7,1-0.9c0.6-0.3,0.8-0.7,0.6-1.4c-1.9-4.7-3.8-9.4-5.6-14.1c-0.3-0.6-0.7-0.7-1.3-0.7
		C413.9,109.4,411.2,109.4,408.5,109.4z M401,105.1c0.5,0,0.9,0,1.2,0c4.1,0,8.2,0,12.3,0c1.3,0,1.3-0.1,0.9-1.3
		c-2.1-5.4-4.1-10.8-6.2-16.2c-0.1-0.4-0.3-0.7-0.5-1.1c-0.1,0-0.2,0-0.3,0C406,92.6,403.6,98.8,401,105.1z"/>
	<path class="st4" d="M19.9,83.7c13.2,28.7,35.3,43.9,67,45.4c-0.6,0.4-1.2,0.7-1.8,1.1c-6,3.4-12.1,6.8-18.2,10.2
		c-0.5,0.3-1.1,0.4-1.6,0.3c-8.4-2.2-16.2-5.7-23.2-11c-6.2-4.7-11.1-10.5-14.8-17.3c-4-7.5-6.3-15.5-7.2-23.9
		C20,86.9,20,85.3,19.9,83.7z"/>
	<path class="st2" d="M362.7,77.7c0,0.3-0.1,0.6-0.1,1c0,12.4,0,24.9,0,37.3c0,2,0.2,4.1,0.4,6.1c0.2,2.5,1.2,3.3,4.1,3.5
		c0.7,0.1,1.4,0,2.1,0.1c0.4,0,0.8,0.1,1.1,0.3c0.6,0.3,0.6,1-0.1,1.3c-0.4,0.2-0.9,0.2-1.3,0.2c-5.1,0-10.1-0.1-15.2-0.2
		c-2,0-3.9,0.1-5.9,0.2c-0.3,0-0.7,0.1-0.9-0.1c-0.3-0.2-0.8-0.5-0.8-0.7c0.1-0.3,0.4-0.7,0.8-0.9c0.3-0.2,0.7-0.1,1.1-0.1
		c2.8,0,3.7-0.9,3.9-3.7c0.2-2.5,0.4-5,0.4-7.4c0-11.9,0-23.8,0-35.8c0-0.3,0-0.7,0-1c-3,0-5.8,0-8.7,0c-1.8,0-3.6,0.2-5.3,0.3
		c-2.7,0.2-4.2,1.7-5.1,4.1c-0.2,0.6-0.3,1.4-1.2,1.2c-0.9-0.2-0.8-1.1-0.6-1.8c0.5-2.8,1-5.6,1.6-8.4c0.3-1.2,0.6-1.4,1.7-1
		c2.5,0.9,5.1,0.9,7.7,0.9c11.4,0,22.8,0,34.2,0c1.4,0,2.8-0.3,4.3-0.5c1.1-0.2,1.5,0,1.5,1.1c0,3.1-0.1,6.2-0.2,9.3
		c0,0.4-0.5,1-0.8,1.1c-0.7,0.2-0.8-0.5-0.9-1c0-0.2,0-0.4-0.1-0.6c-0.1-1.6-0.9-2.7-2.3-3.4c-1.8-0.9-3.8-1.2-5.7-1.2
		C369.3,77.6,366,77.7,362.7,77.7z"/>
	<path class="st2" d="M164.6,73.2c6.8,0,13.6,0,20.3,0c1.9,0,3.9-0.2,5.8-0.3c0.4,0,0.7-0.2,1.1-0.3c0.9-0.3,1.4,0,1.3,0.9
		c-0.2,2.2-0.5,4.4-0.8,6.5c-0.1,0.9-0.1,1.9-0.3,2.7c-0.1,0.4-0.6,0.6-0.9,1c-0.3-0.4-0.6-0.7-0.9-1.1c-0.1-0.1,0-0.3,0-0.5
		c0.2-3-1.8-4.3-4.3-4.4c-4.2-0.2-8.3-0.2-12.5-0.3c-0.8,0-1.1,0.3-1.1,1.1c0,5.5,0,11.1,0,16.6c0,0.7,0.2,1,0.9,1
		c4.6-0.1,9.1-0.1,13.7-0.2c1.1,0,2.1-0.4,2.8-1.4c0.2-0.3,0.7-0.3,1-0.5c0.1,0.3,0.3,0.7,0.3,1c-0.2,2.3-0.5,4.6-0.7,6.8
		c-0.1,0.8-0.1,1.6-0.1,2.4c0,0.3,0.1,0.7-0.1,0.9c-0.2,0.4-0.6,0.7-0.9,1.1c-0.3-0.3-0.6-0.6-0.8-1c-0.2-0.5-0.2-1-0.3-1.5
		c-0.6-2.2-1.7-3.1-4-3.2c-3.6-0.1-7.2-0.1-10.8-0.2c-0.8,0-1.1,0.3-1.1,1.1c0,4.1,0,8.3,0,12.4c0.1,2.9,0.3,5.7,0.6,8.6
		c0.2,1.8,1.1,2.7,2.9,2.9c0.9,0.1,1.9,0.1,2.9,0.2c0.4,0,0.8,0,1.1,0.2c0.3,0.1,0.7,0.5,0.7,0.7c-0.1,0.3-0.4,0.7-0.7,0.8
		c-0.3,0.2-0.7,0.1-1.1,0.1c-4.7-0.1-9.5-0.2-14.2-0.2c-2.2,0-4.5,0.1-6.7,0.2c-0.3,0-0.7,0.1-1-0.1c-0.3-0.1-0.7-0.5-0.7-0.8
		c0-0.3,0.3-0.7,0.6-0.8c0.5-0.2,1-0.1,1.5-0.2c2.4-0.1,3.4-0.9,3.6-3.3c0.2-2.8,0.4-5.7,0.4-8.5c0-11.4,0-22.9,0-34.3
		c0-0.7-0.1-1.3-0.2-2c-0.2-1.1-0.8-2-1.9-2.3c-0.9-0.3-1.9-0.4-2.9-0.6c-0.3-0.1-0.7,0-1,0c-0.6,0-1.4-0.1-1.3-0.9
		c0-0.8,0.8-0.7,1.3-0.7c2.8,0,5.7,0,8.5,0C164.6,73,164.6,73.1,164.6,73.2z"/>
	<path class="st3" d="M366.8,177.5c-4.7,0.1-8.8-1.3-12.1-4.7c-2.3-2.4-3.5-5.4-4-8.6c-0.6-3.9,0.2-7.5,2.2-10.9
		c2.1-3.5,5.1-5.7,9-6.7c4.4-1.1,8.8-1,13,0.7c5,2.1,7.8,6,8.5,11.3c0.5,4.3-0.2,8.3-2.6,11.9c-3,4.5-7.4,6.6-12.7,6.9
		C367.7,177.5,367.3,177.5,366.8,177.5z M377.7,162.7c0-0.8,0.1-1.6,0-2.4c-0.5-4.4-2-8.3-6-10.8c-4.6-2.9-12.2-2.1-14.4,4.8
		c-1.3,4-1.3,8,0,11.9c1.3,4.2,3.9,7.3,8.3,8.6c5,1.4,9.5-0.9,11.2-5.7C377.5,167.1,377.8,164.9,377.7,162.7z"/>
	<path class="st3" d="M334.9,162.9c3,3.6,5.9,7.1,8.9,10.5c1.3,1.5,3,2.5,5.1,2.7c0.2,0,0.5,0.3,0.7,0.4c-0.2,0.2-0.4,0.5-0.7,0.5
		c-1.5,0-3.1,0.1-4.6,0c-1.2-0.1-2.5-0.1-3.4-0.7c-1.3-0.8-2.6-1.9-3.5-3.1c-1.9-2.4-3.6-4.8-5.3-7.3c-0.7-1-1.5-1.4-2.7-1.4
		c-2.4,0.1-2.5,0-2.4,2.4c0,2.3,0.1,4.6,0.2,6.9c0.1,1.7,0.4,2,2,2.2c0.5,0.1,1,0.1,1.4,0.2c0.2,0,0.4,0.2,0.4,0.4
		c0,0.1-0.2,0.4-0.3,0.4c-0.4,0.1-0.8,0.2-1.2,0.2c-3.2,0-6.4,0-9.5,0c-0.2,0-0.3,0-0.5,0c-0.3-0.2-0.6-0.4-0.9-0.5
		c0.3-0.1,0.6-0.4,0.9-0.4c1.8-0.2,2.2-0.5,2.3-2.4c0.1-3.4,0.2-6.8,0.2-10.2c0-4.2,0-8.5,0-12.7c0-0.5,0-1-0.1-1.5
		c-0.2-1.2-0.8-1.7-2-1.8c-0.4,0-0.8,0-1.2-0.1c-0.2-0.1-0.4-0.3-0.6-0.5c0.2-0.1,0.4-0.3,0.6-0.4c0.2-0.1,0.4,0,0.7,0
		c3.9,0,7.8,0,11.7,0c1.2,0,2.4,0.2,3.5,0.4c5.1,1,7.2,6,5,10.7c-0.9,1.9-2.2,3.3-3.7,4.7C335.4,162.4,335.2,162.6,334.9,162.9z
		 M326.9,155.4c0,1.8,0,3.7,0,5.5c0,0.7,0.3,1.2,1,1.2c1,0.1,2.1,0.3,3,0.1c0.9-0.1,1.8-0.5,2.4-1.1c1.7-1.6,2-3.8,1.9-6
		c-0.2-4.1-2.5-7-7.2-6.6c-0.9,0.1-1.2,0.4-1.2,1.2C326.9,151.7,326.9,153.5,326.9,155.4z"/>
	<path class="st3" d="M304.9,161.7c1.7,0,3.4,0,5.1,0c0.3,0,0.6,0.3,0.9,0.4c-0.3,0.2-0.6,0.5-0.9,0.5c-1.6,0.3-2.1,0.8-2.1,2.4
		c0,3,0,6,0,9c0,1-0.3,1.7-1.3,1.9c-1.9,0.5-3.9,1.1-5.8,1.3c-4.4,0.4-8.7,0.2-12.9-1.6c-5.6-2.4-8.6-6.6-9-12.7
		c-0.3-4.9,0.9-9.3,4.5-12.8c2.6-2.5,5.8-3.8,9.4-4.3c4.1-0.5,8.1-0.1,12.2,0.6c0.6,0.1,1.2,0.2,1.8,0.2c0.6,0.1,0.9,0.4,0.9,1
		c-0.1,2-0.1,4-0.2,6c0,0.4-0.3,0.7-0.5,1c-0.2-0.3-0.6-0.6-0.6-0.9c-0.3-2-1.5-3.4-3.3-4.3c-3.9-2-7.9-2.3-11.9-0.9
		c-3.9,1.4-5.8,4.5-6.3,8.5c-0.5,3.5-0.2,7,1.4,10.3c2,4.2,5.3,6.7,9.9,7.4c1.5,0.2,3.2,0.1,4.7,0c1.3-0.1,1.7-0.6,1.7-1.9
		c0-2.7,0-5.5,0-8.2c0-1.6-0.6-2.2-2.2-2.3c0,0-0.1,0-0.1,0c-0.5-0.2-1-0.4-1.4-0.6c0.5-0.1,1-0.4,1.4-0.4
		C301.8,161.7,303.3,161.7,304.9,161.7z"/>
	<path class="st3" d="M428.4,161.1c0,3.6,0,7.2,0,10.8c0,0.8,0.1,1.7,0.2,2.5c0.1,0.9,0.7,1.5,1.7,1.5c0.6,0,1.2,0.1,1.8,0.2
		c0.2,0,0.4,0.3,0.6,0.4c-0.2,0.2-0.3,0.4-0.5,0.5c-0.4,0.1-0.8,0.1-1.1,0.1c-3.3,0-6.6,0-9.8,0c-0.1,0-0.3,0-0.4,0
		c-0.3-0.1-0.6-0.3-1-0.5c0.3-0.2,0.6-0.4,0.9-0.5c1.7-0.2,2.2-0.6,2.2-2.5c0.1-4.2,0.2-8.3,0.2-12.5c0-3.4,0-6.9,0-10.3
		c0-0.5-0.1-1.1-0.1-1.6c-0.2-1.1-0.7-1.6-1.9-1.7c-0.4,0-0.9,0-1.3-0.1c-0.2-0.1-0.4-0.3-0.6-0.5c0.2-0.1,0.4-0.3,0.6-0.4
		c0.1-0.1,0.3,0,0.5,0c4.2,0,8.3-0.1,12.5,0c2.1,0,4.2,0.5,5.9,1.8c2.3,1.9,2.9,4.3,2.4,7.1c-0.7,4.4-4.1,7.5-8.6,7.9
		c-0.7,0.1-1.3,0.1-2,0c-0.2,0-0.4-0.3-0.6-0.5c0.2-0.2,0.4-0.4,0.6-0.5c0.8-0.2,1.7-0.3,2.4-0.6c2.6-1.4,3.9-4.5,3.3-7.7
		c-0.5-2.8-2-4.7-4.8-5.5c-0.2,0-0.3-0.1-0.5-0.1c-2.3-0.3-2.6-0.1-2.6,2.2C428.4,154.1,428.4,157.6,428.4,161.1L428.4,161.1z"/>
	<path class="st3" d="M399.9,146.5c2.4,0,4.7,0,7.1,0c0.8,0,1.6-0.1,2.4-0.3c0.6-0.1,0.9,0.1,0.9,0.7c-0.1,1.5-0.3,3-0.4,4.6
		c0,0.3-0.3,0.6-0.5,0.8c-0.2-0.3-0.4-0.5-0.5-0.8c-0.4-2.1-0.8-2.4-3-2.6c-1.6-0.1-3.1-0.1-4.7-0.2c-0.7,0-1,0.3-1,1
		c0,2.9,0,5.9,0,8.8c0,0.7,0.3,0.9,0.9,0.9c1.9,0,3.9,0,5.8-0.1c0.6,0,1.2-0.5,1.9-0.8c0.2-0.1,0.5-0.2,0.7-0.1
		c0.2,0.1,0.2,0.4,0.2,0.6c-0.1,1.7-0.3,3.4-0.5,5.1c0,0.3-0.3,0.6-0.5,0.9c-0.2-0.3-0.4-0.6-0.5-0.9c-0.1-0.8-0.1-1.6-1-1.9
		c-0.6-0.2-1.3-0.4-2-0.5c-1.4-0.1-2.8,0-4.2-0.1c-0.6,0-0.8,0.3-0.8,0.9c0,3.1,0,6.2,0,9.4c0,1.6,0.7,2.4,2.3,2.5
		c1.6,0.1,3.2,0.1,4.8,0c1.6-0.1,2.5-1,2.9-2.5c0.1-0.2,0.1-0.5,0.2-0.6c0.1-0.2,0.3-0.4,0.5-0.6c0.1,0.2,0.4,0.5,0.4,0.7
		c-0.1,1.5-0.3,3.1-0.5,4.6c-0.1,0.7-0.6,1-1.2,1c-2.6,0-5.3,0-7.9-0.1c-2.8,0-5.7-0.1-8.5-0.1c-0.2,0-0.4,0.1-0.6,0.1
		c-0.3-0.1-0.6-0.3-1-0.5c0.3-0.2,0.6-0.4,0.9-0.5c1.6-0.2,1.9-0.5,2.1-2c0.1-0.4,0.1-0.8,0.1-1.2c0.1-6.2,0.1-12.4,0.2-18.6
		c0-1.5-0.1-3.1-0.2-4.6c-0.1-1.4-0.7-2-2.1-2.1c-0.4,0-0.8,0-1.2-0.1c-0.2-0.1-0.4-0.3-0.6-0.5c0.2-0.1,0.4-0.3,0.6-0.4
		c0.5-0.1,1,0,1.5,0C395.3,146.4,397.6,146.4,399.9,146.5C399.9,146.5,399.9,146.5,399.9,146.5z"/>
</g>
</svg>
